# xmcd
#
# Track frame offsets:
#	150
#	14919
#	31175
#	48836
#	73732
#	93038
#	114380
#	133216
#	163133
#	187320
#	204585
#	218308
#	241529
#	259891
#	279621
#	297918
#	314693
#
# Disc length: 4707 seconds
#
# Revision: 1
# Processed by: cddbd v1.5.1PL2 Copyright (c) Steve Scherf et al.
# Submitted via: audiograbber 1.83.01
#
DISCID=00126111
DTITLE=dsdfcds - fgdfhbfgfh
DYEAR=1900
DGENRE=
TTITLE0=cd
TTITLE1=Dale Don Dale
TTITLE2=Despre Tine (Scorpo and Gambas R
TTITLE3=Parazaar
TTITLE4=Call on Me
TTITLE5=AudioTrack 14
TTITLE6=Illusion
TTITLE7=Fastlane people
TTITLE8=Illusion
TTITLE9=iska6 da tancuwa6
TTITLE10=Wild dances
TTITLE11=Stupidisco
TTITLE12=Всички Дрехи Ми Пречат - www.M
TTITLE13=When I dream at night
TTITLE14=Megamix
TTITLE15=All The People In The World
TTITLE16=144
EXTD=
EXTT0=
EXTT1=
EXTT2=
EXTT3=
EXTT4=
EXTT5=
EXTT6=
EXTT7=
EXTT8=
EXTT9=
EXTT10=
EXTT11=
EXTT12=
EXTT13=
EXTT14=
EXTT15=
EXTT16=
PLAYORDER=
